<svg id="Camada_1" data-name="Camada 1" xmlns="http://www.w3.org/2000/svg" viewBox="0 0 512 512"><title>Antena</title><path d="M325.43,284.9a11.28,11.28,0,0,0,7.91,3.31,10.46,10.46,0,0,0,8-3.7,111.72,111.72,0,1,0-170.71,0,10.46,10.46,0,0,0,7.58,3.51,11.18,11.18,0,0,0,8.36-3.11,12,12,0,0,0,.48-16.22,89,89,0,1,1,137.89,0A12.05,12.05,0,0,0,325.43,284.9Z"/><path d="M406,62.45h0A212.07,212.07,0,0,0,99.62,355.64a10.91,10.91,0,0,0,7.82,3.35,11.37,11.37,0,0,0,8.19-3.14,11.69,11.69,0,0,0,.22-16.16,189.33,189.33,0,1,1,280.31,0,11.68,11.68,0,0,0,.22,16.16,11.21,11.21,0,0,0,8,3.32,10.9,10.9,0,0,0,8-3.53A212.06,212.06,0,0,0,406,62.45Z"/><path d="M276.7,234.27c-6.08-15.64-15.58-18-20.7-18s-14.62,2.33-20.7,18L140.45,478.15c-5.22,13.43-4.15,23.69,3.1,29.66s17.7,4.92,29.69-2.73L256,452.43l82.75,52.65c6.86,4.37,13.11,6.58,18.59,6.58a17.2,17.2,0,0,0,11.1-3.86c7.26-6,8.34-16.21,3.11-29.65ZM162.11,485.21,190.95,411,234.83,439Zm37.25-95.78L256,243.77l56.64,145.65L256,425.48ZM277.18,439,321,411l28.85,74.19Z"/></svg>