<svg id="Camada_1" data-name="Camada 1" xmlns="http://www.w3.org/2000/svg" viewBox="0 0 24 24"><defs><style>.cls-1{fill:#f4ab34;}</style></defs><title>Publicação no Consultoria - Amarelo</title><path class="cls-1" d="M20.19,24H3.81A3.81,3.81,0,0,1,0,20.19V3.81A3.81,3.81,0,0,1,3.81,0H20.19A3.81,3.81,0,0,1,24,3.81V20.19A3.81,3.81,0,0,1,20.19,24ZM3.81,1.6a2.21,2.21,0,0,0-2.2,2.2V20.19a2.21,2.21,0,0,0,2.2,2.2H20.19a2.21,2.21,0,0,0,2.2-2.2V3.81a2.21,2.21,0,0,0-2.2-2.2Z"/><path class="cls-1" d="M15.54,13.12,14.43,10a2.34,2.34,0,0,1,.37-2.24h0c.1-.13,0-.3-.18-.3H10c-.17,0-.28.17-.18.3h0A2.34,2.34,0,0,1,10.19,10L9.08,13.12a5.2,5.2,0,0,0,.57,4.61v0a1.33,1.33,0,0,0,1.12.61h3.05A1.33,1.33,0,0,0,15,17.74v0A5.2,5.2,0,0,0,15.54,13.12Z"/><path class="cls-1" d="M9.64,5.61h4.18a.2.2,0,0,1,.2.18.19.19,0,0,1-.19.21h0a.12.12,0,0,0-.12.12V7a.16.16,0,0,1-.16.16H11A.16.16,0,0,1,10.8,7V6.16A.16.16,0,0,0,10.64,6h-1a.2.2,0,0,1-.2-.18A.19.19,0,0,1,9.64,5.61Z"/><rect class="cls-1" x="5.84" y="7.95" width="3.64" height="0.72" rx="0.19" ry="0.19"/><path class="cls-1" d="M8.45,18a.37.37,0,0,1-.37.37H7.22A.37.37,0,0,1,6.85,18V16.81A.14.14,0,0,1,7,16.67H8.31a.14.14,0,0,1,.14.14Z"/><path class="cls-1" d="M17.5,11.49H16.35a.19.19,0,0,1-.19-.19V9.86a.27.27,0,0,1,.12-.23l1.15-.79a.17.17,0,0,1,.27.12V11.3A.19.19,0,0,1,17.5,11.49Z"/><path class="cls-1" d="M8.69,13.18v-1a7,7,0,0,1,.44-2.42l.25-.68a.16.16,0,0,0-.15-.21H6.09a.16.16,0,0,0-.15.21l.25.68a7,7,0,0,1,.44,2.42V16a.39.39,0,0,0,.39.39H8.3a.38.38,0,0,0,.26-.1.18.18,0,0,0,.05-.17,5.54,5.54,0,0,1-.12-.64,5.42,5.42,0,0,1,.17-2.18A.53.53,0,0,0,8.69,13.18Z"/><polygon class="cls-1" points="15.87 10.28 15.87 10.28 15.87 10.28 15.87 10.28"/><polygon class="cls-1" points="15.91 10.25 15.9 10.26 15.91 10.25 15.91 10.25"/><path class="cls-1" d="M17.83,14.54H16.23a.07.07,0,0,0-.07.07,5.46,5.46,0,0,1,0,.9,5.54,5.54,0,0,1-.29,1.22.55.55,0,0,0,0,.19v1.14a.33.33,0,0,0,.33.33h1.71a.33.33,0,0,0,.33-.33v-3.2A.33.33,0,0,0,17.83,14.54Z"/><polygon class="cls-1" points="15.91 10.25 15.91 10.25 15.91 10.25 15.91 10.25"/><path class="cls-1" d="M16.16,14.29h1.65a.18.18,0,0,0,.18-.18V12.23a.46.46,0,0,0-.46-.46H16.45a.46.46,0,0,0-.46.46v1.16a.48.48,0,0,0,0,.12,5.45,5.45,0,0,1,.14.78Z"/></svg>