<svg id="Camada_1" data-name="Camada 1" xmlns="http://www.w3.org/2000/svg" viewBox="0 0 24 24"><defs><style>.cls-1{fill:#f4ab34;}</style></defs><title>Histórico de Títulos - Amarelo</title><path class="cls-1" d="M20.46,3.49A12,12,0,1,0,24,12,12,12,0,0,0,20.46,3.49Zm-1,15.89a10.46,10.46,0,1,1,3-7.41A10.44,10.44,0,0,1,19.42,19.37Z"/><path class="cls-1" d="M15.43,9.47v0a1.48,1.48,0,0,0-.08-.31,2.92,2.92,0,0,0-.27-.61,3,3,0,0,0-.67-.78,3.19,3.19,0,0,0-.88-.51,3.67,3.67,0,0,0-.75-.2h0V6.14a.6.6,0,0,0-.18-.43A.75.75,0,0,0,12,5.51a.73.73,0,0,0-.52.21.65.65,0,0,0-.19.46V7h0a3.54,3.54,0,0,0-.84.25,3.07,3.07,0,0,0-.88.57,2.6,2.6,0,0,0-.6.82,2.36,2.36,0,0,0-.22,1A2.27,2.27,0,0,0,9,10.76a2.77,2.77,0,0,0,.64.8l.29.23.55.33.89.39,1.15.45a4,4,0,0,1,.94.58,1.06,1.06,0,0,1,0,1.59,1.68,1.68,0,0,1-.7.39,2.54,2.54,0,0,1-.8.13,1.88,1.88,0,0,1-.54-.05l-.15,0A1.73,1.73,0,0,1,10,14.3l0-.08a.71.71,0,0,0-1.37.27s0,.05,0,.08a1.45,1.45,0,0,0,.07.3h0a2.9,2.9,0,0,0,.27.61,3,3,0,0,0,.67.78,3.15,3.15,0,0,0,.88.51,3.69,3.69,0,0,0,.75.2h0v.88a.63.63,0,0,0,.71.63.66.66,0,0,0,.71-.67V17h0a3.67,3.67,0,0,0,.84-.25,3.11,3.11,0,0,0,.88-.57,2.65,2.65,0,0,0,.6-.82,2.36,2.36,0,0,0,.22-1A2.27,2.27,0,0,0,15,13.24a2.79,2.79,0,0,0-.64-.8l-.29-.23-.55-.33-.29-.12c-.17-.08-.78-.33-1.71-.7l0,0a4,4,0,0,1-.94-.58,1.06,1.06,0,0,1,0-1.59,1.69,1.69,0,0,1,.7-.39,2.53,2.53,0,0,1,.8-.13,1.68,1.68,0,0,1,.54.05l.13,0A1.72,1.72,0,0,1,14,9.69l0,.08a.59.59,0,0,0,.66.45.71.71,0,0,0,.71-.71v0Z"/></svg>