<svg id="Camada_1" data-name="Camada 1" xmlns="http://www.w3.org/2000/svg" viewBox="0 0 24 24"><defs><style>.cls-1{fill:#f4ab34;}</style></defs><title>Painel de Indicadores - Amarelo</title><path class="cls-1" d="M21.79,5.12h0a.8.8,0,0,0-1.12.17h0l-2.14,2.9A12,12,0,0,0,0,18.24a.8.8,0,0,0,1.6,0A10.41,10.41,0,0,1,12,7.84a10.3,10.3,0,0,1,5.57,1.62l-6.11,8.26a.82.82,0,0,0,1.29,1L22,6.23A.8.8,0,0,0,21.79,5.12Z"/><path class="cls-1" d="M22.59,12.59a.79.79,0,0,0-1.07-.31l0,0a.81.81,0,0,0-.27,1.08,10.38,10.38,0,0,1,1.2,4.85.8.8,0,0,0,1.6,0A12,12,0,0,0,22.59,12.59Z"/></svg>