<svg id="Camada_1" data-name="Camada 1" xmlns="http://www.w3.org/2000/svg" viewBox="0 0 24 24"><defs><style>.cls-1{fill:#f4ab34;}</style></defs><title>Chat - Amarelo</title><path class="cls-1" d="M12,.2C5.39.2,0,4.88,0,10.65a9.52,9.52,0,0,0,2.26,6.1,7.67,7.67,0,0,0,.56.64,1.16,1.16,0,0,1,.35.79l-.75,4.11a1.22,1.22,0,0,0,.45,1.36,1.05,1.05,0,0,0,.58.17h0a1.46,1.46,0,0,0,.81-.28l3.92-2.65a1.29,1.29,0,0,1,.63-.16h.11a17,17,0,0,0,3.06.37c6.62,0,12-4.69,12-10.45S18.62.2,12,.2Zm0,19.33h-.1a15.45,15.45,0,0,1-2.62-.34,2.18,2.18,0,0,0-.47-.05,2.74,2.74,0,0,0-1.49.41L4.11,21.74l.6-3.3a2.58,2.58,0,0,0-.79-2.16l-.06-.06a6.19,6.19,0,0,1-.41-.48,8,8,0,0,1-1.9-5.1c0-4.9,4.68-8.88,10.44-8.88s10.44,4,10.44,8.88S17.76,19.52,12,19.52ZM3.73,16.44h0Z"/></svg>