<svg id="Camada_1" data-name="Camada 1" xmlns="http://www.w3.org/2000/svg" viewBox="0 0 24 24"><defs><style>.cls-1{fill:#f4ab34;}</style></defs><title>Perfil de Vendas - Amarelo</title><path class="cls-1" d="M5.41.46A2.34,2.34,0,0,0,3.09,2.67L1.71,3A2.33,2.33,0,0,0,.08,5.88s0,0,0,0l3,10.45,0,.08v4.78a2.34,2.34,0,0,0,2.32,2.32H21.68A2.34,2.34,0,0,0,24,21.22V2.78A2.34,2.34,0,0,0,21.68.46ZM5.41,2H21.68a.76.76,0,0,1,.77.77V21.22a.76.76,0,0,1-.77.77H5.41a.76.76,0,0,1-.77-.77V2.78A.76.76,0,0,1,5.41,2ZM3.09,4.27v6.53L1.57,5.48s0,0,0,0a.76.76,0,0,1,.54-.94ZM16.18,5.88a.77.77,0,0,0-.7.77V11.3H14.32V9.75A.77.77,0,0,0,13.55,9H10.84a.77.77,0,0,0-.77.77V14.4H8.13a.77.77,0,0,0-.77.77v3.1a.77.77,0,0,0,.77.77H19a.77.77,0,0,0,.77-.77V6.66A.77.77,0,0,0,19,5.88H16.18ZM17,7.43h1.16V17.5H17V12.14s0,0,0-.06,0,0,0-.07Zm-5.42,3.1h1.16V12s0,0,0,.06a.77.77,0,0,0,0,.08V17.5H11.61V15.23s0,0,0-.06,0,0,0-.07Zm2.71,2.32h1.16V17.5H14.32ZM8.9,15.95h1.16V17.5H8.9Z"/></svg>