<svg id="Camada_1" data-name="Camada 1" xmlns="http://www.w3.org/2000/svg" viewBox="0 0 24 24"><defs><style>.cls-1{fill:#f4ab34;}</style></defs><title>Calendário - Amarelo</title><path class="cls-1" d="M12,12.77h0A1.22,1.22,0,0,0,10.78,14h0a1.22,1.22,0,0,0,2.44,0h0A1.22,1.22,0,0,0,12,12.77Z"/><path class="cls-1" d="M12,17h0a1.22,1.22,0,0,0-1.22,1.22h0a1.22,1.22,0,0,0,2.44,0h0A1.22,1.22,0,0,0,12,17Z"/><path class="cls-1" d="M6.4,17h0a1.22,1.22,0,0,0-1.22,1.22h0a1.22,1.22,0,1,0,2.44,0h0A1.22,1.22,0,0,0,6.4,17Z"/><path class="cls-1" d="M17.6,12.77h0A1.22,1.22,0,0,0,16.38,14h0a1.22,1.22,0,1,0,2.44,0h0A1.22,1.22,0,0,0,17.6,12.77Z"/><path class="cls-1" d="M20.71,3.49h-.91a.29.29,0,0,1-.29-.29v-1A1.28,1.28,0,0,0,18.23.94H15.7a1.28,1.28,0,0,0-1.28,1.28v1a.29.29,0,0,1-.29.29H9.87a.29.29,0,0,1-.29-.29v-1A1.28,1.28,0,0,0,8.3.94H5.77A1.28,1.28,0,0,0,4.5,2.21v1a.29.29,0,0,1-.29.29H3.29A3.3,3.3,0,0,0,0,6.79v13a3.3,3.3,0,0,0,3.29,3.29H20.71A3.3,3.3,0,0,0,24,19.77v-13A3.3,3.3,0,0,0,20.71,3.49ZM6.1,3.49V2.64a.1.1,0,0,1,.1-.1H7.87a.1.1,0,0,1,.1.1v.85Zm9.93,0V2.64a.1.1,0,0,1,.1-.1H17.8a.1.1,0,0,1,.1.1v.85Zm4.68,18H3.29a1.68,1.68,0,0,1-1.68-1.68v-13A1.68,1.68,0,0,1,3.29,5.1H20.71a1.68,1.68,0,0,1,1.68,1.68v13A1.68,1.68,0,0,1,20.71,21.45Z"/><path class="cls-1" d="M7.51,8.65a.4.4,0,0,0-.57,0l-.53.53-.53-.53a.4.4,0,1,0-.57.57l.53.53-.53.53a.4.4,0,1,0,.57.57l.53-.53.53.53a.4.4,0,1,0,.57-.57L7,9.76l.53-.53A.4.4,0,0,0,7.51,8.65Z"/><path class="cls-1" d="M7.51,12.88a.4.4,0,0,0-.57,0l-.53.53-.53-.53a.4.4,0,0,0-.57.57l.53.53-.53.53a.4.4,0,0,0,.57.57l.53-.53.53.53a.4.4,0,1,0,.57-.57L7,14l.53-.53A.4.4,0,0,0,7.51,12.88Z"/><path class="cls-1" d="M13.1,8.65a.4.4,0,0,0-.57,0L12,9.19l-.53-.53a.4.4,0,1,0-.57.57l.53.53-.53.53a.4.4,0,1,0,.57.57l.53-.53.53.53a.4.4,0,1,0,.57-.57l-.53-.53.53-.53A.4.4,0,0,0,13.1,8.65Z"/><path class="cls-1" d="M18.7,8.65h0a.4.4,0,0,0-.57,0l-.53.53-.53-.53a.4.4,0,1,0-.57.57l.53.53-.53.53a.4.4,0,1,0,.57.57l.53-.53.53.53a.4.4,0,0,0,.57,0h0a.4.4,0,0,0,0-.57l-.53-.53.53-.53A.4.4,0,0,0,18.7,8.65Z"/></svg>