<svg id="Camada_1" data-name="Camada 1" xmlns="http://www.w3.org/2000/svg" viewBox="0 0 26 26"><defs><style>.cls-1{fill:#f58230;}</style></defs><title>Marcador Consultoria - Laranja</title><path class="cls-1" d="M13,0A13,13,0,1,0,26,13,13,13,0,0,0,13,0Zm4.9,10.47a.32.32,0,0,1,.14-.27l1.36-.93a.2.2,0,0,1,.32.14v2.75a.23.23,0,0,1-.22.22H18.13a.23.23,0,0,1-.22-.22Zm-.2,2.8a.55.55,0,0,1,.54-.54h1.27a.54.54,0,0,1,.54.54V15.5a.21.21,0,0,1-.21.21h-2a6.44,6.44,0,0,0-.16-.92.56.56,0,0,1,0-.14Zm-.09-2.34h0Zm0,0h0ZM10.21,5.46h4.93a.23.23,0,0,1,.24.21.23.23,0,0,1-.23.25.14.14,0,0,0-.14.14v1.1a.19.19,0,0,1-.19.19h-3a.19.19,0,0,1-.19-.19v-1a.19.19,0,0,0-.19-.19H10.22A.23.23,0,0,1,10,5.71.23.23,0,0,1,10.21,5.46ZM5.73,8.84V8.45A.23.23,0,0,1,6,8.22H9.8a.23.23,0,0,1,.23.23v.39a.23.23,0,0,1-.23.23H6A.23.23,0,0,1,5.73,8.84ZM8.82,20.08a.44.44,0,0,1-.44.44h-1a.44.44,0,0,1-.44-.44V18.68a.17.17,0,0,1,.17-.17H8.65a.17.17,0,0,1,.17.17Zm.28-5.69a.63.63,0,0,1,0,.17,6.4,6.4,0,0,0-.2,2.57A6.55,6.55,0,0,0,9,17.9a.21.21,0,0,1-.06.2.45.45,0,0,1-.3.12H7.12a.46.46,0,0,1-.46-.46V13.27a8.21,8.21,0,0,0-.51-2.86l-.3-.8A.19.19,0,0,1,6,9.36h3.7a.19.19,0,0,1,.18.25l-.3.8a8.2,8.2,0,0,0-.51,2.86Zm7.39,5.38a1.57,1.57,0,0,1-1.32.72h-3.6a1.57,1.57,0,0,1-1.32-.72l0,0a6.13,6.13,0,0,1-.67-5.44l1.31-3.68A2.77,2.77,0,0,0,10.42,8c-.11-.15,0-.35.22-.35h5.45c.21,0,.33.2.21.35a2.77,2.77,0,0,0-.44,2.64l1.31,3.68a6.13,6.13,0,0,1-.67,5.44Zm3.78.38a.38.38,0,0,1-.38.38h-2a.38.38,0,0,1-.38-.38V18.81a.65.65,0,0,1,0-.22,6.53,6.53,0,0,0,.35-1.44,6.44,6.44,0,0,0,0-1.06A.08.08,0,0,1,18,16h1.89a.38.38,0,0,1,.38.38Z"/></svg>