<svg id="Camada_1" data-name="Camada 1" xmlns="http://www.w3.org/2000/svg" viewBox="0 0 16 16"><defs><style>.cls-1{fill:#333;}</style></defs><title>Filtro - Cinza</title><path class="cls-1" d="M6.43,16a1.32,1.32,0,0,1-1.32-1.32V8.59a.24.24,0,0,0,0-.14L.5,2.09A1.32,1.32,0,0,1,1.58,0H14.42A1.32,1.32,0,0,1,15.5,2.09h0L11,8.34a.25.25,0,0,0,0,.14V12.8a1.32,1.32,0,0,1-.65,1.14L7.09,15.82A1.31,1.31,0,0,1,6.43,16ZM1.58,1.07a.25.25,0,0,0-.2.39L5.94,7.82a1.31,1.31,0,0,1,.25.77v6.09a.24.24,0,0,0,.12.21.24.24,0,0,0,.25,0L9.77,13a.25.25,0,0,0,.12-.21V8.49a1.31,1.31,0,0,1,.25-.77l4.49-6.26a.24.24,0,0,0,0-.26.24.24,0,0,0-.22-.13Z"/></svg>