<svg id="Camada_1" data-name="Camada 1" xmlns="http://www.w3.org/2000/svg" viewBox="0 0 24 24"><defs><style>.cls-1{fill:#f4ab34;}</style></defs><title>Minhas CNs - Amarelo</title><path class="cls-1" d="M11,12.77a5.16,5.16,0,1,0-4.53,0A8.78,8.78,0,0,0,0,20.1.82.82,0,0,0,.82,21a.79.79,0,0,0,.8-.69,7.12,7.12,0,0,1,14.13,0,.79.79,0,0,0,.8.69.82.82,0,0,0,.81-.93A8.78,8.78,0,0,0,11,12.77Zm1.28-4.64A3.53,3.53,0,1,1,8.69,4.6,3.54,3.54,0,0,1,12.23,8.13Z"/><path class="cls-1" d="M20.6,11.1a3.44,3.44,0,0,0-1.39-6,3.44,3.44,0,0,0-2.9,6,5.59,5.59,0,0,0-1.55,1,.83.83,0,0,0,0,1.29.83.83,0,0,0,1.06,0,3.84,3.84,0,0,1,2.58-1,4.48,4.48,0,0,1,2.39.72,3.74,3.74,0,0,1,1.52,2.73.82.82,0,0,0,.82.7.84.84,0,0,0,.83-.94A5.58,5.58,0,0,0,20.6,11.1Zm-.4-2.34a1.77,1.77,0,1,1-2.09-2.09,1.86,1.86,0,0,1,.35,0,1.75,1.75,0,0,1,1.25.52A1.76,1.76,0,0,1,20.2,8.76Z"/></svg>