<svg id="Camada_1" data-name="Camada 1" xmlns="http://www.w3.org/2000/svg" viewBox="0 0 16 16"><defs><style>.cls-1{fill:#333;}</style></defs><title>Select All - Cinza</title><path class="cls-1" d="M6.89,2.89h8.57a.54.54,0,1,0,0-1.08H6.89a.54.54,0,1,0,0,1.08Z"/><path class="cls-1" d="M3.84.06h0a.55.55,0,0,0-.69.18L1.63,2.6,1,1.68a.53.53,0,0,0-.35-.21H.53A.52.52,0,0,0,0,1.89a.53.53,0,0,0,.1.41L1,3.58a.75.75,0,0,0,1.28,0L4,.79A.53.53,0,0,0,3.84.06Z"/><path class="cls-1" d="M15.46,7.85H6.89a.54.54,0,1,0,0,1.08h8.57a.54.54,0,0,0,0-1.08Z"/><path class="cls-1" d="M3.84,6.1a.54.54,0,0,0-.69.18L1.63,8.65,1,7.74a.53.53,0,0,0-.35-.21H.55a.53.53,0,0,0-.44.83L1,9.62a.75.75,0,0,0,1.28,0L4,6.83A.53.53,0,0,0,3.84,6.1Z"/><path class="cls-1" d="M15.46,13.9H6.89a.54.54,0,0,0,0,1.08h8.57a.54.54,0,0,0,0-1.08Z"/><path class="cls-1" d="M3.14,12.33,1.63,14.69,1,13.78a.53.53,0,0,0-.35-.21H.54a.53.53,0,0,0-.43.83L1,15.66a.72.72,0,0,0,.65.33.74.74,0,0,0,.62-.37L4,12.87a.53.53,0,0,0-.15-.72A.55.55,0,0,0,3.14,12.33Z"/></svg>