<svg id="Camada_1" data-name="Camada 1" xmlns="http://www.w3.org/2000/svg" viewBox="0 0 24 24"><defs><style>.cls-1{fill:#f4ab34;}</style></defs><title>Tarefas - Amarelo</title><path class="cls-1" d="M4.28,6H23.22a.78.78,0,0,0,0-1.57H4.28A.78.78,0,0,0,4.28,6Z"/><circle class="cls-1" cx="0.78" cy="5.25" r="0.78"/><path class="cls-1" d="M23.22,11.23H4.28a.78.78,0,0,0,0,1.57H23.22a.78.78,0,0,0,0-1.57Z"/><circle class="cls-1" cx="0.78" cy="12.02" r="0.78"/><path class="cls-1" d="M23.22,18H4.28a.78.78,0,0,0,0,1.57H23.22a.78.78,0,0,0,0-1.57Z"/><circle class="cls-1" cx="0.78" cy="18.75" r="0.78"/></svg>