<svg id="Camada_1" data-name="Camada 1" xmlns="http://www.w3.org/2000/svg" viewBox="0 0 54 54"><defs><style>.cls-1{fill:#f4ab34;}</style></defs><title>Minhas CNs - Amarelo</title><path class="cls-1" d="M23.85,29l-.68-.16.64-.27a11.35,11.35,0,1,0-8.77,0l.64.27L15,29A19.62,19.62,0,0,0,0,45.59a1.42,1.42,0,0,0,1.41,1.6A1.36,1.36,0,0,0,2.79,46,16.75,16.75,0,0,1,36,46,1.36,1.36,0,0,0,37.4,47.2a1.41,1.41,0,0,0,1.06-.48,1.43,1.43,0,0,0,.35-1.12A19.63,19.63,0,0,0,23.85,29Zm-13-10.89a8.55,8.55,0,1,1,8.54,8.55A8.56,8.56,0,0,1,10.89,18.15Z"/><path class="cls-1" d="M46.13,25.21l-.39-.15.34-.24A7.4,7.4,0,0,0,43.4,11.56,7.47,7.47,0,0,0,37.12,13a7.39,7.39,0,0,0,.34,11.77l.34.24-.39.15a12.3,12.3,0,0,0-3.8,2.3,1.46,1.46,0,0,0-.5,1.15,1.44,1.44,0,0,0,.57,1.09,1.42,1.42,0,0,0,1.84-.07,9.29,9.29,0,0,1,6.21-2.36A10.69,10.69,0,0,1,47.43,29c2.51,1.59,3.4,4.45,3.69,6.58a1.43,1.43,0,0,0,1.42,1.21A1.46,1.46,0,0,0,54,35.17,12.31,12.31,0,0,0,46.13,25.21Zm-3.46-2a4.65,4.65,0,0,1-.88.08,4.52,4.52,0,0,1-.89-8.95,4.52,4.52,0,0,1,1.77,8.86Z"/></svg>