<svg id="Camada_1" data-name="Camada 1" xmlns="http://www.w3.org/2000/svg" viewBox="0 0 54 54"><defs><style>.cls-1{fill:#f4ab34;}</style></defs><title>Perfil - Amarelo</title><path class="cls-1" d="M27,0A27,27,0,1,0,54,27,27,27,0,0,0,27,0ZM41.15,46.67a24.09,24.09,0,0,1-28.29,0l-.16-.12,0-.2a14.4,14.4,0,0,1,28.57,0l0,.2ZM19.8,22.15a7.2,7.2,0,1,1,7.2,7.2A7.21,7.21,0,0,1,19.8,22.15Zm24.43,21.9-.42.42-.15-.58A17.24,17.24,0,0,0,31.73,31.62l-.81-.23.74-.39a10,10,0,1,0-9.34,0l.74.39-.81.23A17.24,17.24,0,0,0,10.33,43.9l-.15.58-.42-.42A24.25,24.25,0,1,1,51.26,27,24.11,24.11,0,0,1,44.23,44.05Z"/></svg>