<svg id="Camada_1" data-name="Camada 1" xmlns="http://www.w3.org/2000/svg" viewBox="0 0 48 48"><defs><style>.cls-1{fill:#f4ab34;}</style></defs><title>Perfil de Vendas - Amarelo</title><path class="cls-1" d="M43.68.94H10.61A4.38,4.38,0,0,0,6.29,5.06v.29l-3.09.81a4.25,4.25,0,0,0-2.6,2,4.3,4.3,0,0,0-.43,3.27v.1L6.22,32.73a1.5,1.5,0,0,0,0,.15l0,.13v9.73a4.33,4.33,0,0,0,4.32,4.32H43.68A4.33,4.33,0,0,0,48,42.74V5.26A4.33,4.33,0,0,0,43.68.94ZM6.29,24.44,2.38,10.78v0A1.94,1.94,0,0,1,3.79,8.41l2.5-.65Zm39.37,18.3a1.93,1.93,0,0,1-2,2H10.61a1.93,1.93,0,0,1-2-2V5.26a1.93,1.93,0,0,1,2-2H43.68a1.93,1.93,0,0,1,2,2Z"/><path class="cls-1" d="M38.17,12H32.52a1.16,1.16,0,0,0-1,1.17V23H28.32V19.43a1.17,1.17,0,0,0-1.17-1.17H21.63a1.17,1.17,0,0,0-1.17,1.17v9.85H16.12a1.17,1.17,0,0,0-1.17,1.17v6.3a1.17,1.17,0,0,0,1.17,1.17h22a1.17,1.17,0,0,0,1.17-1.17V13.13A1.17,1.17,0,0,0,38.17,12ZM20.46,35.58H17.29v-4h3.17ZM26,24.31V35.58H22.8v-15H26v3.53C26,24.22,26,24.26,26,24.31Zm5.51,11.27H28.32V25.33h3.17Zm5.51,0H33.83V14.3H37Z"/></svg>