<svg id="Camada_1" data-name="Camada 1" xmlns="http://www.w3.org/2000/svg" viewBox="0 0 54 54"><defs><style>.cls-1{fill:#f4ab34;}</style></defs><title>Tarefas - Amarelo</title><path class="cls-1" d="M9.36,12.95H52.63a1.37,1.37,0,0,0,0-2.74H9.36a1.37,1.37,0,1,0,0,2.74Z"/><circle class="cls-1" cx="1.37" cy="11.57" r="1.37"/><path class="cls-1" d="M52.63,25.66H9.36a1.37,1.37,0,1,0,0,2.74H52.63a1.37,1.37,0,0,0,0-2.74Z"/><circle class="cls-1" cx="1.37" cy="27.04" r="1.37"/><path class="cls-1" d="M52.63,41.06H9.36a1.37,1.37,0,1,0,0,2.74H52.63a1.37,1.37,0,0,0,0-2.74Z"/><circle class="cls-1" cx="1.37" cy="42.43" r="1.37"/></svg>