<svg id="Camada_1" data-name="Camada 1" xmlns="http://www.w3.org/2000/svg" viewBox="0 0 24 24.09"><defs><style>.cls-1{fill:#777;}</style></defs><title>Iconografia</title><rect class="cls-1" x="10.79" y="12.81" width="2.43" height="2.43" rx="1.21" ry="1.21"/><rect class="cls-1" x="10.79" y="17.02" width="2.43" height="2.43" rx="1.21" ry="1.21"/><rect class="cls-1" x="5.21" y="17.02" width="2.43" height="2.43" rx="1.21" ry="1.21"/><rect class="cls-1" x="16.36" y="12.81" width="2.43" height="2.43" rx="1.21" ry="1.21"/><path class="cls-1" d="M20.68,3.82h-.91a.54.54,0,0,1-.54-.54v-1a1,1,0,0,0-1-1H15.69a1,1,0,0,0-1,1v1a.54.54,0,0,1-.54.54H9.88a.54.54,0,0,1-.54-.54v-1a1,1,0,0,0-1-1H5.8a1,1,0,0,0-1,1v1a.54.54,0,0,1-.54.54H3.32a3,3,0,0,0-3,3V19.79a3,3,0,0,0,3,3H20.68a3,3,0,0,0,3-3V6.85A3,3,0,0,0,20.68,3.82ZM16.11,2.37h1.66a.35.35,0,0,1,.35.35v1.1H15.76V2.72A.35.35,0,0,1,16.11,2.37Zm-9.89,0H7.89a.35.35,0,0,1,.35.35v1.1H5.87V2.72A.35.35,0,0,1,6.22,2.37ZM22.6,19.79a1.93,1.93,0,0,1-1.93,1.93H3.32A1.93,1.93,0,0,1,1.4,19.79V6.85A1.93,1.93,0,0,1,3.32,4.93H20.68A1.93,1.93,0,0,1,22.6,6.85Z"/><path class="cls-1" d="M20.68,23.07H3.32A3.29,3.29,0,0,1,0,19.79V6.85A3.29,3.29,0,0,1,3.32,3.57h.91a.29.29,0,0,0,.29-.29v-1A1.27,1.27,0,0,1,5.8,1H8.31A1.27,1.27,0,0,1,9.59,2.3v1a.29.29,0,0,0,.29.29h4.25a.29.29,0,0,0,.29-.29v-1A1.27,1.27,0,0,1,15.69,1H18.2A1.27,1.27,0,0,1,19.48,2.3v1a.29.29,0,0,0,.29.29h.91A3.29,3.29,0,0,1,24,6.85V19.79A3.29,3.29,0,0,1,20.68,23.07ZM3.32,4.07A2.79,2.79,0,0,0,.54,6.85V19.79a2.79,2.79,0,0,0,2.78,2.78H20.68a2.79,2.79,0,0,0,2.78-2.78V6.85a2.79,2.79,0,0,0-2.78-2.78h-.91A.79.79,0,0,1,19,3.28v-1a.77.77,0,0,0-.77-.77H15.69a.77.77,0,0,0-.77.77v1a.79.79,0,0,1-.79.79H9.88a.79.79,0,0,1-.79-.79v-1a.77.77,0,0,0-.77-.77H5.8A.77.77,0,0,0,5,2.3v1a.79.79,0,0,1-.79.79ZM20.68,22H3.32a2.18,2.18,0,0,1-2.18-2.18V6.85A2.18,2.18,0,0,1,3.32,4.68H20.68a2.18,2.18,0,0,1,2.18,2.18V19.79A2.18,2.18,0,0,1,20.68,22ZM3.32,5.18A1.68,1.68,0,0,0,1.65,6.85V19.79a1.68,1.68,0,0,0,1.68,1.68H20.68a1.68,1.68,0,0,0,1.68-1.68V6.85a1.68,1.68,0,0,0-1.68-1.68ZM18.38,4.07H15.51V2.72a.6.6,0,0,1,.6-.6h1.66a.6.6,0,0,1,.6.6ZM16,3.57h1.87V2.72a.1.1,0,0,0-.1-.1H16.11a.1.1,0,0,0-.1.1Zm-7.52.5H5.62V2.72a.6.6,0,0,1,.6-.6H7.89a.6.6,0,0,1,.6.6Zm-2.37-.5H8V2.72a.1.1,0,0,0-.1-.1H6.22a.1.1,0,0,0-.1.1Z"/><path class="cls-1" d="M7,9.81l.53-.53a.4.4,0,0,0,0-.57h0a.4.4,0,0,0-.57,0l-.53.53L5.9,8.71a.4.4,0,0,0-.57,0h0a.4.4,0,0,0,0,.57l.53.53-.53.53a.4.4,0,0,0,.57.57l.53-.53.53.53a.4.4,0,0,0,.57,0h0a.4.4,0,0,0,0-.57Z"/><path class="cls-1" d="M7,14l.53-.53a.4.4,0,0,0,0-.57h0a.4.4,0,0,0-.57,0l-.53.53-.53-.53a.4.4,0,0,0-.57,0h0a.4.4,0,0,0,0,.57l.53.53-.53.53a.4.4,0,0,0,.57.57l.53-.53.53.53a.4.4,0,0,0,.57,0h0a.4.4,0,0,0,0-.57Z"/><path class="cls-1" d="M12.57,9.81l.53-.53a.4.4,0,0,0,0-.57h0a.4.4,0,0,0-.57,0L12,9.24l-.53-.53a.4.4,0,0,0-.57,0h0a.4.4,0,0,0,0,.57l.53.53-.53.53a.4.4,0,0,0,.57.57l.53-.53.53.53a.4.4,0,0,0,.57,0h0a.4.4,0,0,0,0-.57Z"/><path class="cls-1" d="M18.14,9.81l.53-.53a.4.4,0,0,0,0-.57h0a.4.4,0,0,0-.57,0l-.53.53L17,8.71a.4.4,0,0,0-.57,0h0a.4.4,0,0,0,0,.57l.53.53-.53.53a.4.4,0,0,0,.57.57l.53-.53.53.53a.4.4,0,0,0,.57,0h0a.4.4,0,0,0,0-.57Z"/></svg>