<svg width="24px" height="24px" viewBox="128 364 24 24" version="1.1" xmlns="http://www.w3.org/2000/svg" xmlns:xlink="http://www.w3.org/1999/xlink">
    <g id="ic-relogio" stroke="none" stroke-width="1" fill="none" fill-rule="evenodd" transform="translate(128.000000, 364.000000)">
        <path d="M12,20.8425 C7.12416667,20.8425 3.1575,16.8758333 3.1575,12 C3.1575,7.12416667 7.12416667,3.1575 12,3.1575 C16.8758333,3.1575 20.8425,7.12416667 20.8425,12 C20.8425,16.8758333 16.8758333,20.8425 12,20.8425 L12,20.8425 Z M12,2.3125 C6.65833333,2.3125 2.3125,6.65833333 2.3125,12 C2.3125,17.3416667 6.65833333,21.6875 12,21.6875 C17.3416667,21.6875 21.6875,17.3416667 21.6875,12 C21.6875,6.65833333 17.3416667,2.3125 12,2.3125 L12,2.3125 Z" id="Fill-1" fill="#333333" fill-rule="nonzero"></path>
        <path d="M12,20.8425 L12,20.6341667 C9.61916667,20.6341667 7.46166667,19.6666667 5.8975,18.1025 C4.33333333,16.5383333 3.36583333,14.3808333 3.365,12 C3.36583333,9.61916667 4.33333333,7.46166667 5.8975,5.8975 C7.46166667,4.33333333 9.61916667,3.36583333 12,3.36583333 C14.3808333,3.36583333 16.5383333,4.33333333 18.1025,5.8975 C19.6658333,7.46166667 20.6341667,9.61916667 20.6341667,12 C20.6341667,14.3808333 19.6658333,16.5383333 18.1025,18.1025 C16.5383333,19.6666667 14.3808333,20.6341667 12,20.6341667 L12,21.0508333 C16.9908333,21.0508333 21.0508333,16.9916667 21.0508333,12 C21.0508333,7.00833333 16.9908333,2.94916667 12,2.94916667 C7.00833333,2.94916667 2.94916667,7.00833333 2.94916667,12 C2.94916667,16.9916667 7.00833333,21.0508333 12,21.0508333 L12,20.8425 L12,20.8425 Z M12,2.3125 L12,2.10416667 C6.5425,2.10416667 2.10416667,6.5425 2.10416667,12 C2.10416667,17.4575 6.5425,21.895 12,21.8958333 C17.4566667,21.895 21.8958333,17.4575 21.8958333,12 C21.8958333,6.5425 17.4566667,2.10416667 12,2.10416667 L12,2.52083333 C14.6133333,2.52083333 16.9825,3.58333333 18.6991667,5.30083333 C20.4166667,7.0175 21.4791667,9.38583333 21.4791667,12 C21.4791667,14.6133333 20.4166667,16.9825 18.6991667,18.6991667 C16.9825,20.4166667 14.6133333,21.4791667 12,21.4791667 C9.38583333,21.4791667 7.0175,20.4166667 5.3,18.6991667 C3.58333333,16.9825 2.52083333,14.6133333 2.52083333,12 C2.52083333,9.38583333 3.58333333,7.0175 5.3,5.30083333 C7.0175,3.58333333 9.38583333,2.52083333 12,2.52083333 L12,2.3125 L12,2.3125 Z" id="Fill-2" fill="#333333" fill-rule="nonzero"></path>
        <path d="M12.445,11.8475 L12.4366667,11.8291667 L12.4291667,11.8116667 L12.4225,11.7925 L12.4225,6.01916667 C12.4225,5.78666667 12.2325,5.59666667 12,5.59666667 C11.7666667,5.59666667 11.5775,5.78666667 11.5775,6.01916667 L11.5775,11.7941667 C11.5775,12.0183333 11.6883333,12.2858333 11.8466667,12.4441667 L15.305,15.9016667 C15.385,15.9816667 15.4908333,16.0258333 15.6033333,16.0258333 C15.7158333,16.0258333 15.8216667,15.9816667 15.9025,15.9016667 C16.0666667,15.7366667 16.0658333,15.4683333 15.9016667,15.3041667 L12.445,11.8475" id="Fill-3" fill="#333333" fill-rule="nonzero"></path>
        <path d="M12.445,11.8475 L12.635,11.7616667 L12.6233333,11.735 L12.6183333,11.7225 L12.4225,11.7925 L12.6308333,11.7925 L12.6308333,6.01916667 C12.63,5.67083333 12.3483333,5.38916667 12,5.38833333 C11.6516667,5.38916667 11.3691667,5.67083333 11.3691667,6.01916667 L11.3691667,11.7941667 C11.3733333,12.085 11.4966667,12.3833333 11.7,12.5916667 L15.1575,16.0491667 C15.275,16.1675 15.4358333,16.2341667 15.6033333,16.2341667 C15.77,16.2341667 15.9308333,16.1666667 16.0491667,16.0491667 C16.1725,15.9258333 16.2333333,15.7625 16.2333333,15.6025 C16.2333333,15.4416667 16.1708333,15.28 16.0491667,15.1575 L12.5925,11.7 L12.445,11.8475 L12.635,11.7616667 L12.445,11.8475 L12.2975,11.995 L15.7541667,15.4516667 L15.8166667,15.6025 L15.7541667,15.7541667 L15.6033333,15.8175 L15.4516667,15.7541667 L11.9941667,12.2966667 C11.88,12.1891667 11.7816667,11.9516667 11.7858333,11.7941667 L11.7858333,6.01916667 C11.7858333,5.90166667 11.8825,5.80583333 12,5.805 C12.1175,5.80583333 12.2133333,5.90166667 12.2141667,6.01916667 L12.2141667,11.8283333 L12.2325,11.8816667 L12.2341667,11.8866667 L12.2458333,11.9133333 L12.2466667,11.915 L12.255,11.9333333 L12.2708333,11.9683333 L12.2975,11.995 L12.445,11.8475" id="Fill-4" fill="#333333" fill-rule="nonzero"></path>
        <rect id="bounds" x="0" y="0" width="24" height="24"></rect>
    </g>
</svg>
