<svg id="Camada_1" data-name="Camada 1" xmlns="http://www.w3.org/2000/svg" viewBox="0 0 24 24.09"><defs><style>.cls-1{fill:#777;}</style></defs><title>Iconografia</title><path class="cls-1" d="M4.26,6.11H23.11a.78.78,0,0,0,0-1.56H4.26a.78.78,0,0,0,0,1.56Z"/><circle class="cls-1" cx="0.78" cy="5.33" r="0.78"/><path class="cls-1" d="M23.11,11.28H4.26a.78.78,0,0,0,0,1.56H23.11a.78.78,0,0,0,0-1.56Z"/><circle class="cls-1" cx="0.78" cy="12.06" r="0.78"/><path class="cls-1" d="M23.11,18H4.26a.78.78,0,0,0,0,1.56H23.11a.78.78,0,0,0,0-1.56Z"/><circle class="cls-1" cx="0.78" cy="18.77" r="0.78"/></svg>