<svg id="Camada_1" data-name="Camada 1" xmlns="http://www.w3.org/2000/svg" viewBox="0 0 24 24.09"><defs><style>.cls-1{fill:#777;}</style></defs><title>Iconografia</title><path class="cls-1" d="M18.34,13.52l-1.57-5a5.57,5.57,0,0,1,0-3.4A1.27,1.27,0,0,0,16.6,4a1.35,1.35,0,0,0-1.09-.55h-.06V1.55h.09a.77.77,0,0,0,0-1.55H7.7a.77.77,0,1,0,0,1.55H8.84V3.43h-.1A1.35,1.35,0,0,0,7.65,4a1.26,1.26,0,0,0-.18,1.15,5.57,5.57,0,0,1,0,3.4l-1.57,5a8.72,8.72,0,0,0,.33,6.11l1,2.39a3.31,3.31,0,0,0,2.84,2v0h3.73A3.36,3.36,0,0,0,17,22l1-2.39A8.73,8.73,0,0,0,18.34,13.52Zm-4.43-12V3.43H10.38V1.55ZM16.6,19l-1,2.39a1.82,1.82,0,0,1-1.69,1.05H10.39A1.82,1.82,0,0,1,8.7,21.4L7.65,19a7.18,7.18,0,0,1-.27-5L9,9A7.08,7.08,0,0,0,9,5h6.2a7.1,7.1,0,0,0,.08,4l1.57,5A7.18,7.18,0,0,1,16.6,19Z"/><path class="cls-1" d="M23.73,16.74V13.29a1,1,0,0,0-.46-.84V9.64a1,1,0,0,0-.48-.85,1,1,0,0,0-.59-.13.68.68,0,0,0-.39.09L19.71,9.89h0a.75.75,0,0,0-.38.64.76.76,0,0,0,.76.76.74.74,0,0,0,.35-.09h0l1.28-.7v1.7h-.91a.78.78,0,0,0,0,1.56h1.37v2.62H21.1a.77.77,0,0,0,0,1.54h0c.12,0,.42,0,1.29,0h.11v4.53H19.18a.77.77,0,0,0,0,1.54H23a1,1,0,0,0,1-1V17.42A1,1,0,0,0,23.73,16.74Z"/><path class="cls-1" d="M5,22.45H3.1v-.81h.53a.77.77,0,0,0,0-1.53H2.74l-.3-7.41a5.45,5.45,0,0,0-.17-1.17L1.8,9.78H4.33a.77.77,0,1,0,0-1.54H1.54V7.3H4.92a.77.77,0,1,0,0-1.54h-4A1,1,0,0,0,0,6.91V8.63a1.43,1.43,0,0,0,.1.5,1,1,0,0,0,.05.43l.63,2.36a3.9,3.9,0,0,1,.12.84l.3,7.29v.14a1.44,1.44,0,0,0,.36.94v1.51A1.34,1.34,0,0,0,2.91,24H5a.77.77,0,1,0,0-1.54Z"/></svg>