
<svg width="18px" height="18px" viewBox="187 367 18 18" version="1.1" xmlns="http://www.w3.org/2000/svg" xmlns:xlink="http://www.w3.org/1999/xlink">
    <!-- Generator: Sketch 42 (36781) - http://www.bohemiancoding.com/sketch -->
    <desc>Created with Sketch.</desc>
    <defs></defs>
    <g id="ic-atencao" stroke="none" stroke-width="1" fill="none" fill-rule="evenodd" transform="translate(187.000000, 367.000000)">
        <path d="M9,5.87925 C8.58825,5.87925 8.253,6.2145 8.253,6.62625 C8.253,7.03875 8.58825,7.374 9,7.374 C9.41175,7.374 9.747,7.03875 9.747,6.62625 C9.747,6.2145 9.41175,5.87925 9,5.87925" id="Fill-1" fill="#E34255" fill-rule="nonzero"></path>
        <path d="M9,5.87925 L9,5.69175 C8.484,5.69175 8.0655,6.11025 8.0655,6.62625 C8.0655,7.14225 8.484,7.56075 9,7.5615 C9.516,7.56075 9.9345,7.14225 9.9345,6.62625 C9.9345,6.11025 9.516,5.69175 9,5.69175 L9,6.06675 C9.30825,6.0675 9.55875,6.318 9.5595,6.62625 C9.55875,6.9345 9.30825,7.18575 9,7.1865 C8.69175,7.18575 8.4405,6.9345 8.43975,6.62625 C8.4405,6.318 8.69175,6.0675 9,6.06675 L9,5.87925" id="Fill-2" fill="#E34255" fill-rule="nonzero"></path>
        <path d="M9,9 C8.7405,9 8.5305,9.21075 8.5305,9.4695 L8.5305,14.439 C8.5305,14.69775 8.7405,14.9085 9,14.9085 C9.25875,14.9085 9.4695,14.69775 9.4695,14.439 L9.4695,9.4695 C9.4695,9.21075 9.25875,9 9,9" id="Fill-3" fill="#E34255" fill-rule="nonzero"></path>
        <path d="M9,9 L9,8.8125 C8.637,8.8125 8.343,9.1065 8.343,9.4695 L8.343,14.439 C8.343,14.802 8.637,15.096 9,15.096 C9.363,15.096 9.657,14.80125 9.657,14.439 L9.657,9.4695 C9.657,9.1065 9.363,8.8125 9,8.8125 L9,9.1875 C9.15525,9.1875 9.28125,9.31425 9.282,9.4695 L9.282,14.439 C9.28125,14.59425 9.1545,14.721 9,14.721 C8.84475,14.721 8.718,14.59425 8.71725,14.439 L8.71725,9.4695 C8.718,9.31425 8.84475,9.1875 9,9.1875 L9,9" id="Fill-4" fill="#E34255" fill-rule="nonzero"></path>
        <path d="M16.73925,15.52125 C16.4475,16.0185 15.807,16.293 14.934,16.293 L3.06525,16.293 C2.19225,16.293 1.551,16.0185 1.26,15.52125 C0.96825,15.02325 1.04325,14.3295 1.4715,13.569 L7.48275,2.8815 C7.90875,2.124 8.448,1.70625 8.99925,1.70625 C9.5505,1.70625 10.08975,2.124 10.51575,2.8815 L16.527,13.569 C16.95525,14.3295 17.031,15.0225 16.73925,15.52125 L16.73925,15.52125 Z M17.241,13.0275 L11.325,2.51025 C10.72875,1.4505 9.903,0.867 9,0.867 C8.09625,0.867 7.27125,1.4505 6.67425,2.51025 L0.759,13.0275 C0.16425,14.08425 0.093,15.10425 0.55875,15.89925 C1.02375,16.69425 1.94775,17.133 3.1605,17.133 L14.84025,17.133 C16.053,17.133 16.97625,16.69425 17.442,15.89925 C17.90625,15.1035 17.835,14.0835 17.241,13.0275 L17.241,13.0275 Z" id="Fill-5" fill="#E34255" fill-rule="nonzero"></path>
        <path d="M16.73925,15.52125 L16.578,15.426 C16.33725,15.8415 15.7725,16.10475 14.934,16.1055 L3.06525,16.1055 C2.22675,16.10475 1.66125,15.8415 1.42125,15.426 C1.323,15.258 1.27275,15.06225 1.272,14.8365 C1.272,14.49975 1.389,14.09625 1.63425,13.6605 L7.64625,2.97375 C8.0565,2.244 8.55,1.89 8.99925,1.89375 C9.44775,1.89 9.942,2.244 10.35225,2.97375 L16.3635,13.6605 C16.6095,14.09625 16.7265,14.49975 16.7265,14.8365 C16.72575,15.06225 16.6755,15.258 16.57725,15.42675 L16.73925,15.52125 L16.90125,15.615 C17.03625,15.38475 17.1015,15.11925 17.1015,14.8365 C17.10075,14.4135 16.95825,13.953 16.6905,13.47675 L10.67925,2.78925 C10.23675,2.00325 9.65325,1.5225 8.99925,1.51875 C8.34525,1.5225 7.761,2.00325 7.31925,2.79 L1.308,13.47675 C1.0395,13.953 0.89775,14.4135 0.897,14.8365 C0.897,15.11925 0.96225,15.38475 1.098,15.61575 C1.44075,16.1955 2.15775,16.48125 3.06525,16.4805 L14.934,16.4805 C15.8415,16.48125 16.5585,16.1955 16.90125,15.61575 L16.73925,15.52125 L16.73925,15.52125 Z M17.241,13.0275 L17.4045,12.93525 L11.4885,2.418 C10.87425,1.32225 9.99,0.6795 9,0.6795 C8.00925,0.6795 7.125,1.32225 6.51075,2.41875 L0.5955,12.93525 C0.2475,13.55325 0.06675,14.16825 0.06675,14.7465 C0.06675,15.19275 0.1755,15.61725 0.39675,15.99375 C0.90375,16.86075 1.90575,17.32275 3.1605,17.3205 L14.84025,17.3205 C16.09425,17.32275 17.09625,16.8615 17.60325,15.99375 C17.82375,15.61725 17.9325,15.19275 17.93175,14.7465 C17.93175,14.16825 17.75175,13.55325 17.4045,12.936 L17.241,13.0275 L17.0775,13.119 C17.4,13.6935 17.5575,14.247 17.5575,14.7465 C17.55675,15.13275 17.4645,15.48675 17.28,15.804 C16.85625,16.52775 16.011,16.94325 14.84025,16.9455 L3.1605,16.9455 C1.989,16.94325 1.14375,16.527 0.72,15.804 C0.53475,15.48675 0.4425,15.13275 0.44175,14.7465 C0.44175,14.247 0.59925,13.6935 0.9225,13.11975 L6.83775,2.6025 C7.416,1.57875 8.18325,1.0545 9,1.0545 C9.816,1.0545 10.58325,1.57875 11.1615,2.6025 L17.0775,13.11975 L17.241,13.0275 L17.241,13.0275 Z" id="Fill-6" fill="#E34255" fill-rule="nonzero"></path>
    </g>
</svg>
