<svg id="Camada_1" data-name="Camada 1" xmlns="http://www.w3.org/2000/svg" viewBox="0 0 512 512"><title>Painel de Indicadores</title><path d="M457.42,108.3a11.44,11.44,0,0,0-7.59,4.57l-50.05,67.7-4.65-3a254.6,254.6,0,0,0-139.22-41.3C115.61,136.23,1.31,249.73,0,389.74H0v3.07a11.57,11.57,0,0,0,23.12-.14v-.5c0-128.36,104.44-232.79,232.78-232.79a231.64,231.64,0,0,1,124.83,36.34l5.32,3.4L249,384.57a11.58,11.58,0,0,0,18.63,13.76l200.82-271.7a11.58,11.58,0,0,0-11-18.33Z"/><path d="M475.19,266.42a12,12,0,0,0-9.38,1.4c-5.16,3.25-6.79,10-3.76,15.73a233.48,233.48,0,0,1,26.84,108.6V393a11.57,11.57,0,0,0,23.11-.08v-.71a256.39,256.39,0,0,0-30.1-120.51A10.57,10.57,0,0,0,475.19,266.42Z"/></svg>