<svg id="Camada_1" data-name="Camada 1" xmlns="http://www.w3.org/2000/svg" viewBox="0 0 48 48"><defs><style>.cls-1{fill:#777;}</style></defs><title>Iconografia</title><circle class="cls-1" cx="24" cy="28.05" r="2.11"/><circle class="cls-1" cx="24" cy="36.67" r="2.11"/><circle class="cls-1" cx="12.59" cy="36.67" r="2.11"/><circle class="cls-1" cx="35.41" cy="28.05" r="2.11"/><path class="cls-1" d="M13.23,19.42l1.35-1.35a.44.44,0,0,0,0-.63h0a.44.44,0,0,0-.63,0L12.6,18.79l-1.35-1.35a.44.44,0,1,0-.63.63L12,19.42l-1.35,1.35a.44.44,0,0,0,0,.63.44.44,0,0,0,.63,0l1.35-1.35L14,21.4a.44.44,0,0,0,.63-.63Z"/><path class="cls-1" d="M14.27,21.71a.61.61,0,0,1-.44-.18L12.6,20.3l-1.23,1.23a.61.61,0,0,1-.44.18h0a.62.62,0,0,1-.62-.62.61.61,0,0,1,.18-.44l1.23-1.23L10.5,18.19a.61.61,0,0,1-.18-.44.62.62,0,0,1,.18-.44.63.63,0,0,1,.88,0l1.23,1.23,1.23-1.23a.63.63,0,0,1,.88,0l.05.06a.62.62,0,0,1-.05.82l-1.23,1.23,1.23,1.23a.61.61,0,0,1,.18.44.62.62,0,0,1-.18.44A.61.61,0,0,1,14.27,21.71ZM12.6,19.8l1.48,1.47a.27.27,0,0,0,.38,0,.27.27,0,0,0,.08-.19.26.26,0,0,0-.08-.19L13,19.42l1.47-1.48a.26.26,0,0,0,.08-.19.27.27,0,0,0-.08-.19l0,0a.27.27,0,0,0-.36,0L12.6,19l-1.48-1.47a.27.27,0,0,0-.38,0,.27.27,0,0,0,0,.38l1.48,1.48L10.75,20.9a.26.26,0,0,0-.08.19.26.26,0,0,0,.08.19.27.27,0,0,0,.19.08h0a.27.27,0,0,0,.19-.08Z"/><path class="cls-1" d="M14.58,26.07a.44.44,0,0,0-.63,0L12.6,27.42l-1.35-1.35a.44.44,0,1,0-.63.63L12,28,10.62,29.4a.44.44,0,0,0,.63.63l1.35-1.35L14,30a.44.44,0,0,0,.63,0,.44.44,0,0,0,0-.63L13.23,28l1.35-1.35a.44.44,0,0,0,0-.63Z"/><path class="cls-1" d="M14.27,30.33a.61.61,0,0,1-.44-.18L12.6,28.92l-1.23,1.23a.64.64,0,0,1-.88,0,.61.61,0,0,1-.18-.44.62.62,0,0,1,.18-.44L11.73,28,10.5,26.82a.62.62,0,0,1,0-.88.61.61,0,0,1,.44-.18h0a.61.61,0,0,1,.44.18l1.23,1.23,1.23-1.23a.63.63,0,0,1,.88,0l.05.06a.62.62,0,0,1-.05.82L13.48,28l1.23,1.23a.62.62,0,0,1,0,.88A.61.61,0,0,1,14.27,30.33Zm-1.67-1.9,1.48,1.47a.27.27,0,0,0,.38,0,.27.27,0,0,0,0-.38L13,28l1.47-1.48a.26.26,0,0,0,.08-.19.27.27,0,0,0-.08-.19l0,0a.27.27,0,0,0-.36,0L12.6,27.66l-1.48-1.47a.27.27,0,0,0-.38,0,.27.27,0,0,0,0,.38L12.22,28l-1.47,1.48a.27.27,0,0,0-.08.19.27.27,0,0,0,.08.19.28.28,0,0,0,.38,0Z"/><path class="cls-1" d="M24.63,19.42,26,18.07a.44.44,0,1,0-.63-.63L24,18.79l-1.35-1.35a.44.44,0,1,0-.63.63l1.35,1.35L22,20.77a.44.44,0,0,0,0,.63.44.44,0,0,0,.63,0L24,20.05l1.35,1.35a.44.44,0,0,0,.63,0,.44.44,0,0,0,0-.63Z"/><path class="cls-1" d="M25.67,21.71h0a.62.62,0,0,1-.44-.18L24,20.3l-1.23,1.23a.61.61,0,0,1-.44.18h0a.62.62,0,0,1-.62-.62.6.6,0,0,1,.18-.44l1.23-1.23L21.9,18.19a.62.62,0,0,1,0-.88.61.61,0,0,1,.44-.18h0a.61.61,0,0,1,.44.18L24,18.55l1.23-1.23a.62.62,0,0,1,.44-.18h0a.62.62,0,0,1,.44,1.06l-1.23,1.23,1.23,1.23a.62.62,0,0,1-.44,1.06ZM24,19.8l1.48,1.47a.26.26,0,0,0,.19.08h0a.27.27,0,0,0,.27-.27.26.26,0,0,0-.08-.19l-1.48-1.48,1.47-1.48a.26.26,0,0,0,.08-.19.27.27,0,0,0-.27-.27h0a.26.26,0,0,0-.19.08L24,19l-1.48-1.47a.26.26,0,0,0-.19-.08h0a.27.27,0,0,0-.19.46l1.48,1.48L22.14,20.9a.25.25,0,0,0-.08.19.26.26,0,0,0,.08.19.27.27,0,0,0,.19.08h0a.26.26,0,0,0,.19-.08Z"/><path class="cls-1" d="M36,19.42l1.35-1.35a.44.44,0,1,0-.63-.63l-1.35,1.35-1.35-1.35a.44.44,0,1,0-.63.63l1.35,1.35-1.35,1.35a.44.44,0,0,0,0,.63.44.44,0,0,0,.63,0l1.35-1.35,1.35,1.35a.44.44,0,1,0,.63-.63Z"/><path class="cls-1" d="M37.08,21.71a.61.61,0,0,1-.44-.18L35.42,20.3l-1.23,1.23a.61.61,0,0,1-.44.18h0a.62.62,0,0,1-.43-1.06l1.22-1.23-1.23-1.23a.62.62,0,0,1,0-.88.6.6,0,0,1,.43-.18h0a.61.61,0,0,1,.44.18l1.23,1.23,1.23-1.23a.62.62,0,0,1,.44-.18h0a.62.62,0,0,1,.44,1.06l-1.23,1.23,1.23,1.23a.62.62,0,0,1-.44,1.06Zm-1.67-1.9,1.48,1.47a.26.26,0,0,0,.19.08h0a.26.26,0,0,0,.19-.08.27.27,0,0,0,0-.38L35.8,19.42l1.47-1.48a.26.26,0,0,0,.08-.19.27.27,0,0,0-.08-.19.26.26,0,0,0-.19-.08h0a.27.27,0,0,0-.19.08L35.42,19l-1.48-1.47a.26.26,0,0,0-.19-.08h0a.26.26,0,0,0-.19.08.27.27,0,0,0-.08.19.26.26,0,0,0,.08.19L35,19.42,33.56,20.9a.25.25,0,0,0-.08.19.26.26,0,0,0,.08.19.27.27,0,0,0,.19.08h0a.27.27,0,0,0,.19-.08Z"/><path class="cls-1" d="M41.76,7.12H39.89a1.07,1.07,0,0,1-1.07-1.07V4A2.13,2.13,0,0,0,36.7,1.91H31.54A2.13,2.13,0,0,0,29.42,4v2a1.07,1.07,0,0,1-1.07,1.07h-8.7a1.07,1.07,0,0,1-1.07-1.07V4a2.13,2.13,0,0,0-2.13-2.13H11.3A2.13,2.13,0,0,0,9.17,4v2A1.07,1.07,0,0,1,8.11,7.12H6.24A6.25,6.25,0,0,0,0,13.36V39.84a6.25,6.25,0,0,0,6.24,6.24H41.76A6.25,6.25,0,0,0,48,39.84V13.36A6.25,6.25,0,0,0,41.76,7.12Zm-10-2.2a.68.68,0,0,1,.68-.68h3.41a.68.68,0,0,1,.68.68v2.2H31.74Zm-20.24,0a.68.68,0,0,1,.68-.68h3.41a.68.68,0,0,1,.68.68v2.2H11.49ZM45.66,39.84a3.91,3.91,0,0,1-3.9,3.9H6.24a3.91,3.91,0,0,1-3.9-3.9V13.36a3.91,3.91,0,0,1,3.9-3.9H41.76a3.91,3.91,0,0,1,3.9,3.9Z"/></svg>