<svg id="Camada_1" data-name="Camada 1" xmlns="http://www.w3.org/2000/svg" viewBox="0 0 48 48"><defs><style>.cls-1{fill:#777;}</style></defs><title>Iconografia</title><path class="cls-1" d="M33.33,17.06a11.67,11.67,0,0,1,0-7.14,2.2,2.2,0,0,0-.32-2,2.37,2.37,0,0,0-1.91-1h-.5V2.39h.56a1.2,1.2,0,1,0,0-2.39H15.25a1.2,1.2,0,0,0,0,2.39H18V7h-.57a2.36,2.36,0,0,0-1.91,1,2.19,2.19,0,0,0-.32,2,11.69,11.69,0,0,1,0,7.14L12,27.21a17.35,17.35,0,0,0,.65,12.15l2.13,4.86A6.38,6.38,0,0,0,20.23,48l.35,0h7.21a6.44,6.44,0,0,0,6-3.79l2.13-4.86a17.35,17.35,0,0,0,.65-12.14Zm-13-14.67h7.93V7H20.33Zm13.36,36-2.12,4.86a4.08,4.08,0,0,1-3.78,2.36H20.73a4.07,4.07,0,0,1-3.78-2.36L14.82,38.4a15,15,0,0,1-.56-10.48l3.19-10.14a14,14,0,0,0,.14-8l-.13-.47H31l-.13.47a14.08,14.08,0,0,0,.15,8l3.19,10.14A15,15,0,0,1,33.69,38.4Z"/><path class="cls-1" d="M47.55,33.89l-.1-.11V26.64a1.7,1.7,0,0,0-.77-1.4l-.16-.11V19.21a1.64,1.64,0,0,0-.8-1.41,1.59,1.59,0,0,0-1-.22,1.12,1.12,0,0,0-.65.13l-4.23,2.37a1.15,1.15,0,0,0-.59,1,1.17,1.17,0,0,0,1.17,1.17,1.13,1.13,0,0,0,.53-.15l.32-.17h0l2.83-1.56v4.46H41.93a1.22,1.22,0,0,0,0,2.43l3.15,0v6.08H42.48a1.19,1.19,0,0,0-.25,2.35h.22c.23,0,.95,0,2.57,0h.6v10h-7a1.19,1.19,0,0,0,0,2.38h7.74A1.68,1.68,0,0,0,48,46.32V35A1.65,1.65,0,0,0,47.55,33.89Z"/><path class="cls-1" d="M9.78,45.62H5.55V43.24H7a1.18,1.18,0,0,0,0-2.36H4.82L4.19,25.45a10.68,10.68,0,0,0-.33-2.3l-1.07-4H8.41a1.19,1.19,0,1,0,0-2.38h-6V14.08H9.6a1.19,1.19,0,1,0,0-2.38H1.52c-.89,0-1.53.82-1.53,2v3.51a2.57,2.57,0,0,0,.18.9l0,.07v.08A1.65,1.65,0,0,0,.29,19l1.28,4.81a8.37,8.37,0,0,1,.26,1.79l.62,15.11a2.55,2.55,0,0,0,.64,1.66l.09.11v3.22A2.35,2.35,0,0,0,5.52,48H9.78a1.19,1.19,0,1,0,0-2.38Z"/></svg>