<svg id="Camada_1" data-name="Camada 1" xmlns="http://www.w3.org/2000/svg" viewBox="0 0 48 48"><defs><style>.cls-1{fill:#777;}</style></defs><title>Iconografia</title><path class="cls-1" d="M8.37,11.54H46.72a1.22,1.22,0,0,0,0-2.43H8.37a1.22,1.22,0,1,0,0,2.43Z"/><circle class="cls-1" cx="1.28" cy="10.32" r="1.22"/><path class="cls-1" d="M46.72,22.82H8.37a1.21,1.21,0,1,0,0,2.43H46.72a1.21,1.21,0,0,0,0-2.43Z"/><circle class="cls-1" cx="1.28" cy="24.03" r="1.21"/><path class="cls-1" d="M46.72,36.46H8.37a1.21,1.21,0,1,0,0,2.43H46.72a1.21,1.21,0,0,0,0-2.43Z"/><circle class="cls-1" cx="1.28" cy="37.68" r="1.21"/></svg>