<svg id="Camada_1" data-name="Camada 1" xmlns="http://www.w3.org/2000/svg" viewBox="0 0 48 48"><defs><style>.cls-1{fill:#777;}</style></defs><title>Iconografia</title><path class="cls-1" d="M24,0A24,24,0,1,0,48,24,24,24,0,0,0,24,0ZM36.57,41.49a21.42,21.42,0,0,1-25.15,0l-.14-.1,0-.18a12.8,12.8,0,0,1,25.39,0l0,.18Zm-19-21.8a6.4,6.4,0,1,1,6.4,6.4A6.41,6.41,0,0,1,17.6,19.69ZM39.32,39.16l-.37.38L38.82,39A15.32,15.32,0,0,0,28.21,28.11l-.72-.2.66-.35a8.9,8.9,0,1,0-8.3,0l.66.35-.72.2A15.32,15.32,0,0,0,9.18,39l-.13.51-.37-.38A21.56,21.56,0,1,1,45.57,24,21.43,21.43,0,0,1,39.32,39.16Z"/></svg>