<svg id="Camada_1" data-name="Camada 1" xmlns="http://www.w3.org/2000/svg" viewBox="0 0 54 54"><defs><style>.cls-1{fill:#f4ab34;}</style></defs><title>Calendário - Amarelo</title><circle class="cls-1" cx="27" cy="31.55" r="2.37"/><circle class="cls-1" cx="27" cy="41.26" r="2.37"/><circle class="cls-1" cx="14.16" cy="41.26" r="2.37"/><circle class="cls-1" cx="39.84" cy="31.55" r="2.37"/><path class="cls-1" d="M14.88,21.85l1.52-1.52a.5.5,0,0,0,0-.71h0a.5.5,0,0,0-.71,0l-1.52,1.52-1.52-1.52a.5.5,0,1,0-.71.71l1.52,1.52L12,23.37a.5.5,0,0,0,0,.71.5.5,0,0,0,.71,0l1.52-1.52,1.52,1.52a.5.5,0,0,0,.71-.71Z"/><path class="cls-1" d="M16.05,24.42a.69.69,0,0,1-.49-.21l-1.38-1.38L12.8,24.22a.69.69,0,0,1-.49.2h0a.7.7,0,0,1-.7-.7.68.68,0,0,1,.21-.49l1.38-1.38-1.38-1.38a.69.69,0,0,1-.2-.49.7.7,0,0,1,.2-.49.71.71,0,0,1,1,0l1.38,1.38,1.38-1.38a.71.71,0,0,1,1,0l.06.06a.69.69,0,0,1-.06.92l-1.38,1.38,1.38,1.38a.68.68,0,0,1,.2.49.7.7,0,0,1-.2.49A.69.69,0,0,1,16.05,24.42Zm-1.88-2.14,1.66,1.66a.31.31,0,0,0,.43,0,.3.3,0,0,0,.09-.22.29.29,0,0,0-.09-.21l-1.66-1.66,1.66-1.66a.29.29,0,0,0,.09-.21.3.3,0,0,0-.09-.21l0,0a.3.3,0,0,0-.41,0l-1.66,1.66-1.66-1.66a.31.31,0,0,0-.43,0,.3.3,0,0,0,0,.43l1.66,1.66-1.66,1.66a.29.29,0,0,0-.09.21.29.29,0,0,0,.09.21.3.3,0,0,0,.21.09h0a.3.3,0,0,0,.21-.09Z"/><path class="cls-1" d="M16.4,29.32a.5.5,0,0,0-.71,0l-1.52,1.52-1.52-1.52A.5.5,0,1,0,12,30l1.52,1.52L12,33.07a.5.5,0,0,0,.71.71l1.52-1.52,1.52,1.52a.5.5,0,0,0,.71,0,.5.5,0,0,0,0-.71l-1.52-1.52L16.4,30a.5.5,0,0,0,0-.71Z"/><path class="cls-1" d="M16.05,34.12a.69.69,0,0,1-.49-.21l-1.38-1.38L12.8,33.92a.71.71,0,0,1-1,0,.68.68,0,0,1-.2-.49.7.7,0,0,1,.2-.49l1.38-1.38-1.38-1.38a.7.7,0,0,1,0-1,.69.69,0,0,1,.49-.2h0a.69.69,0,0,1,.49.21l1.38,1.38,1.38-1.38a.71.71,0,0,1,1,0l.06.06a.69.69,0,0,1-.06.92l-1.38,1.38,1.38,1.38a.69.69,0,0,1,0,1A.68.68,0,0,1,16.05,34.12ZM14.18,32l1.66,1.66a.31.31,0,0,0,.43,0,.3.3,0,0,0,0-.43l-1.66-1.66,1.66-1.66a.3.3,0,0,0,.09-.21.3.3,0,0,0-.09-.21l0,0a.31.31,0,0,0-.41,0l-1.66,1.66-1.66-1.66a.31.31,0,0,0-.43,0,.3.3,0,0,0,0,.43l1.66,1.66-1.66,1.66a.3.3,0,0,0-.09.21.3.3,0,0,0,.09.21.31.31,0,0,0,.43,0Z"/><path class="cls-1" d="M27.71,21.85l1.52-1.52a.5.5,0,1,0-.71-.71L27,21.14l-1.52-1.52a.5.5,0,1,0-.71.71l1.52,1.52-1.52,1.52a.5.5,0,0,0,0,.71.5.5,0,0,0,.71,0L27,22.56l1.52,1.52a.5.5,0,0,0,.71,0,.5.5,0,0,0,0-.71Z"/><path class="cls-1" d="M28.87,24.42h0a.69.69,0,0,1-.49-.21L27,22.84l-1.38,1.38a.68.68,0,0,1-.49.2h0a.7.7,0,0,1-.7-.7.68.68,0,0,1,.21-.49L26,21.85l-1.38-1.38a.69.69,0,0,1,0-1,.68.68,0,0,1,.49-.2h0a.68.68,0,0,1,.49.21L27,20.87l1.38-1.38a.69.69,0,0,1,.49-.2h0a.7.7,0,0,1,.49,1.19L28,21.85l1.38,1.38a.7.7,0,0,1-.49,1.19ZM27,22.28l1.66,1.66a.29.29,0,0,0,.21.09h0a.3.3,0,0,0,.3-.3.29.29,0,0,0-.09-.21l-1.66-1.66,1.66-1.66a.29.29,0,0,0,.09-.21.3.3,0,0,0-.3-.3h0a.29.29,0,0,0-.21.09L27,21.42l-1.66-1.66a.29.29,0,0,0-.21-.09h0a.3.3,0,0,0-.21.52l1.66,1.66-1.66,1.66a.29.29,0,0,0-.09.21.3.3,0,0,0,.09.21.31.31,0,0,0,.22.09h0a.29.29,0,0,0,.21-.09Z"/><path class="cls-1" d="M40.55,21.85l1.52-1.52a.5.5,0,0,0-.71-.71l-1.52,1.52-1.52-1.52a.5.5,0,1,0-.71.71l1.52,1.52-1.52,1.52a.5.5,0,0,0,0,.71.5.5,0,0,0,.71,0l1.52-1.52,1.52,1.52a.5.5,0,0,0,.71-.71Z"/><path class="cls-1" d="M41.72,24.42a.69.69,0,0,1-.49-.21l-1.38-1.38-1.38,1.38a.69.69,0,0,1-.49.2h0a.69.69,0,0,1-.49-1.19l1.38-1.38-1.38-1.38a.69.69,0,0,1,0-1,.68.68,0,0,1,.49-.2h0a.69.69,0,0,1,.49.21l1.38,1.38,1.38-1.38a.69.69,0,0,1,.49-.2h0a.7.7,0,0,1,.49,1.19l-1.38,1.38,1.38,1.38a.7.7,0,0,1-.49,1.19Zm-1.87-2.14,1.66,1.66a.3.3,0,0,0,.21.09h0a.29.29,0,0,0,.21-.09.3.3,0,0,0,0-.43l-1.66-1.66,1.66-1.66A.3.3,0,0,0,42,20a.3.3,0,0,0-.09-.21.29.29,0,0,0-.21-.09h0a.3.3,0,0,0-.21.09l-1.66,1.66-1.66-1.66a.3.3,0,0,0-.21-.09h0a.29.29,0,0,0-.21.09.3.3,0,0,0-.09.22.3.3,0,0,0,.09.21l1.66,1.66-1.66,1.66a.29.29,0,0,0-.09.21.3.3,0,0,0,.09.21A.3.3,0,0,0,38,24h0a.3.3,0,0,0,.21-.09Z"/><path class="cls-1" d="M47,8h-2.1a1.2,1.2,0,0,1-1.2-1.2V4.55a2.4,2.4,0,0,0-2.4-2.4h-5.8a2.4,2.4,0,0,0-2.4,2.4V6.81A1.2,1.2,0,0,1,31.89,8H22.11a1.2,1.2,0,0,1-1.2-1.2V4.55a2.4,2.4,0,0,0-2.4-2.4h-5.8a2.4,2.4,0,0,0-2.4,2.4V6.81A1.2,1.2,0,0,1,9.12,8H7a7,7,0,0,0-7,7V44.82a7,7,0,0,0,7,7H47a7,7,0,0,0,7-7V15A7,7,0,0,0,47,8ZM35.7,5.53a.77.77,0,0,1,.77-.77H40.3a.77.77,0,0,1,.77.77V8H35.7Zm-22.77,0a.77.77,0,0,1,.77-.77h3.83a.77.77,0,0,1,.77.77V8H12.93ZM51.37,44.82A4.4,4.4,0,0,1,47,49.22H7a4.4,4.4,0,0,1-4.39-4.39V15A4.4,4.4,0,0,1,7,10.64H47A4.4,4.4,0,0,1,51.37,15Z"/></svg>