<?xml version="1.0" encoding="UTF-8"?>
<svg id="Camada_1" data-name="Camada 1" xmlns="http://www.w3.org/2000/svg" viewBox="0 0 76 76">
  <defs>
    <style>.cls-2{fill:#f4ab34;}</style>
  </defs>
  <title>Ligar - Amarelo</title>
  <path class="cls-2" d="M51.57,43.45l-.2-.21C50,42,48.51,41,47.64,41a7.44,7.44,0,0,0-2.35.46,4.73,4.73,0,0,1-3,.22c-1.3-.38-2.74-1.41-4.69-3.35s-3-3.38-3.35-4.69a4.73,4.73,0,0,1,.22-3,7.38,7.38,0,0,0,.46-2.35c0-.9-.92-2.44-2.19-3.67l-.21-.2a8.78,8.78,0,0,0-3.43-2.26,4.31,4.31,0,0,0-1.2-.17,6,6,0,0,0-4.14,2A6.1,6.1,0,0,0,22,28.36c0,1.82,1.1,4.38,3.19,7.41a60.69,60.69,0,0,0,6.91,8.17,59.89,59.89,0,0,0,8.14,6.88c3,2.06,5.57,3.15,7.39,3.15h0A6.09,6.09,0,0,0,52,52.2c1.76-1.76,2.39-3.56,1.86-5.34A8.75,8.75,0,0,0,51.57,43.45Zm-.67,7.74a4.57,4.57,0,0,1-3.24,1.34h0c-1.82,0-4.41-1.48-6.27-2.73a57.32,57.32,0,0,1-8.23-6.9,58,58,0,0,1-6.95-8.26c-1-1.51-2.72-4.33-2.72-6.28a4.57,4.57,0,0,1,1.34-3.27h0c1.32-1.32,2.48-1.83,3.68-1.59a6.79,6.79,0,0,1,3,2,7.41,7.41,0,0,1,2,2.77l0,0v0a6.3,6.3,0,0,1-.4,1.92c-.8,2.44-1,4.67,3.45,9.19,2.72,2.72,4.82,3.93,6.8,3.93a7.59,7.59,0,0,0,2.34-.43,6.32,6.32,0,0,1,1.89-.39h.12a6.84,6.84,0,0,1,2.63,1.78l.15.16a6.62,6.62,0,0,1,2,3.06C52.66,48.72,52.14,49.95,50.91,51.19Z"/>
</svg>
