<svg id="Camada_1" data-name="Camada 1" xmlns="http://www.w3.org/2000/svg" viewBox="0 0 30 30"><defs><style>.cls-1{fill:#f58230;}</style></defs><title>Marcador Consultoria - Laranja</title><path class="cls-1" d="M15,0A15,15,0,1,0,30,15,15,15,0,0,0,15,0Zm5.66,12.08a.37.37,0,0,1,.16-.31l1.57-1.07a.23.23,0,0,1,.37.17V14a.26.26,0,0,1-.26.26H20.92a.26.26,0,0,1-.26-.26Zm-.23,3.23a.63.63,0,0,1,.63-.63h1.47a.63.63,0,0,1,.63.63v2.57a.24.24,0,0,1-.24.24H20.63a7.43,7.43,0,0,0-.19-1.06.65.65,0,0,1,0-.16Zm-.1-2.69h0Zm0,0h0ZM11.78,6.3h5.69a.27.27,0,0,1,.27.24.26.26,0,0,1-.26.29.16.16,0,0,0-.16.16V8.25a.22.22,0,0,1-.22.22H13.59a.22.22,0,0,1-.22-.22V7a.22.22,0,0,0-.22-.22H11.79a.27.27,0,0,1-.27-.24A.26.26,0,0,1,11.78,6.3ZM6.61,10.2V9.75a.26.26,0,0,1,.26-.26h4.44a.26.26,0,0,1,.26.26v.45a.26.26,0,0,1-.26.26H6.87A.26.26,0,0,1,6.61,10.2Zm3.56,13a.51.51,0,0,1-.5.5H8.49a.5.5,0,0,1-.5-.5V21.55a.19.19,0,0,1,.19-.19H10a.19.19,0,0,1,.19.19Zm.32-6.56a.73.73,0,0,1,0,.2,7.38,7.38,0,0,0-.24,3,7.56,7.56,0,0,0,.16.87.24.24,0,0,1-.07.24A.52.52,0,0,1,10,21H8.22a.53.53,0,0,1-.53-.53V15.32A9.47,9.47,0,0,0,7.1,12l-.34-.92A.22.22,0,0,1,7,10.8h4.27a.22.22,0,0,1,.2.29l-.34.92a9.47,9.47,0,0,0-.59,3.3ZM19,22.82a1.82,1.82,0,0,1-1.52.83H13.34a1.82,1.82,0,0,1-1.52-.83l0,0A7.08,7.08,0,0,1,11,16.52l1.51-4.24a3.19,3.19,0,0,0-.51-3c-.13-.17,0-.4.25-.4h6.29c.24,0,.38.23.25.4a3.19,3.19,0,0,0-.51,3l1.51,4.24A7.08,7.08,0,0,1,19,22.79Zm4.36.44a.44.44,0,0,1-.44.44H20.61a.44.44,0,0,1-.44-.44V21.71a.75.75,0,0,1,0-.26,7.54,7.54,0,0,0,.4-1.67,7.43,7.43,0,0,0,0-1.23.09.09,0,0,1,.09-.1h2.19a.44.44,0,0,1,.44.44Z"/></svg>