<svg id="Camada_1" data-name="Camada 1" xmlns="http://www.w3.org/2000/svg" viewBox="0 0 54 54"><defs><style>.cls-1{fill:#f4ab34;}</style></defs><title>Consultoria - Amarelo</title><path class="cls-1" d="M37.49,19.2a13.13,13.13,0,0,1,0-8,2.48,2.48,0,0,0-.36-2.25A2.66,2.66,0,0,0,35,7.84h-.56V2.7h.63a1.35,1.35,0,1,0,0-2.69H17.16a1.35,1.35,0,1,0,0,2.69h3V7.84h-.65a2.65,2.65,0,0,0-2.15,1.09A2.46,2.46,0,0,0,17,11.17a13.15,13.15,0,0,1,0,8L13.5,30.6a19.51,19.51,0,0,0,.73,13.66l2.39,5.46A7.17,7.17,0,0,0,22.76,54l.39,0h8.1A7.25,7.25,0,0,0,38,49.73l2.39-5.47a19.51,19.51,0,0,0,.74-13.66ZM22.87,2.7h8.92V7.84H22.87Zm15,40.5-2.39,5.47a4.59,4.59,0,0,1-4.25,2.66H23.32a4.58,4.58,0,0,1-4.25-2.66L16.68,43.2A16.83,16.83,0,0,1,16,31.41L19.63,20a15.78,15.78,0,0,0,.16-9l-.15-.53H34.93l-.15.53a15.83,15.83,0,0,0,.17,9l3.58,11.4A16.84,16.84,0,0,1,37.9,43.2Z"/><path class="cls-1" d="M53.49,38.12,53.38,38V30a1.91,1.91,0,0,0-.86-1.58l-.18-.13V21.62a1.84,1.84,0,0,0-.9-1.59,1.78,1.78,0,0,0-1.09-.24,1.26,1.26,0,0,0-.73.14l-4.76,2.66a1.29,1.29,0,0,0-.66,1.1A1.31,1.31,0,0,0,45.51,25a1.27,1.27,0,0,0,.6-.17l.36-.19h0l3.19-1.75v5h-2.5a1.37,1.37,0,0,0,0,2.73l3.55,0v6.83H47.79a1.33,1.33,0,0,0-.28,2.64h.24c.26,0,1.07,0,2.9,0h.68v11.2H43.41a1.34,1.34,0,0,0,0,2.67h8.7A1.89,1.89,0,0,0,54,52.1V39.41A1.86,1.86,0,0,0,53.49,38.12Z"/><path class="cls-1" d="M11,51.32H6.25V48.63H7.87a1.33,1.33,0,0,0,0-2.66H5.43l-.7-17.33a12,12,0,0,0-.37-2.58l-1.2-4.54H9.47a1.34,1.34,0,1,0,0-2.67H2.67v-3h8.14a1.34,1.34,0,1,0,0-2.67H1.72c-1,0-1.72.93-1.72,2.2v3.95a2.89,2.89,0,0,0,.21,1l0,.08v.09a1.86,1.86,0,0,0,.1.83l1.44,5.41a9.42,9.42,0,0,1,.29,2l.69,17a2.86,2.86,0,0,0,.72,1.87l.1.12v3.62A2.65,2.65,0,0,0,6.22,54H11a1.34,1.34,0,1,0,0-2.67Z"/></svg>