<svg id="Camada_1" data-name="Camada 1" xmlns="http://www.w3.org/2000/svg" viewBox="0 0 48 48"><defs><style>.cls-1{fill:#f4ab34;}</style></defs><title>Histórico de Títulos - Amarelo</title><path class="cls-1" d="M40.91,7A23.84,23.84,0,0,0,24,0h-.08A24,24,0,0,0,24,48h.08A24,24,0,0,0,40.91,7ZM39.39,39.29A21.56,21.56,0,0,1,24.07,45.7H24a21.7,21.7,0,0,1-.07-43.4H24a21.7,21.7,0,0,1,15.39,37Z"/><path class="cls-1" d="M28.38,19.23l.06.16h0a1.18,1.18,0,0,0,2.27-.58h0a3.18,3.18,0,0,0-.14-.57,5.79,5.79,0,0,0-1.84-2.72,6.27,6.27,0,0,0-1.72-1,7.21,7.21,0,0,0-1.78-.43V12.14h0a1.18,1.18,0,1,0-2.36,0h0v1.95a7.3,7.3,0,0,0-2,.53,6.15,6.15,0,0,0-1.73,1.11A5.12,5.12,0,0,0,18,17.33a4.54,4.54,0,0,0-.43,2A4.38,4.38,0,0,0,18,21.39a5.43,5.43,0,0,0,1.23,1.55A8.46,8.46,0,0,0,20.94,24h0c.59.27,1.19.54,1.8.78l2.37.93a8.32,8.32,0,0,1,2,1.23,2.41,2.41,0,0,1,.27,3.4l-.21.21a3.64,3.64,0,0,1-1.52.85,5.47,5.47,0,0,1-1.71.27,5.67,5.67,0,0,1-1.14-.11h0a3.81,3.81,0,0,1-3.14-2.79l-.06-.16h0a1.18,1.18,0,0,0-2.27.58h0a3.18,3.18,0,0,0,.14.57,5.79,5.79,0,0,0,1.84,2.72,6.27,6.27,0,0,0,1.72,1,7.21,7.21,0,0,0,1.78.43v1.94h0a1.18,1.18,0,0,0,2.36,0h0V33.91a7.3,7.3,0,0,0,2-.53,6.15,6.15,0,0,0,1.73-1.11A5.12,5.12,0,0,0,30,30.67a4.54,4.54,0,0,0,.43-2A4.38,4.38,0,0,0,30,26.61a5.43,5.43,0,0,0-1.23-1.55A8.46,8.46,0,0,0,27.06,24h0c-.59-.27-1.19-.54-1.8-.78l-2.37-.93a8.32,8.32,0,0,1-2-1.23,2.41,2.41,0,0,1-.27-3.4l.21-.21a3.64,3.64,0,0,1,1.52-.85,5.47,5.47,0,0,1,1.71-.27,5.67,5.67,0,0,1,1.14.11h0A3.81,3.81,0,0,1,28.38,19.23Z"/></svg>