<svg id="Camada_1" data-name="Camada 1" xmlns="http://www.w3.org/2000/svg" viewBox="0 0 76 76"><defs><style>.cls-1{fill:#f4ab34;}.cls-2{fill:#fff;}</style></defs><title>e-mail - Amarelo</title><circle class="cls-1" cx="38" cy="38" r="38"/><path class="cls-2" d="M49.88,26.24H26.12A4.13,4.13,0,0,0,22,30.37V45.64a4.12,4.12,0,0,0,4.12,4.12H49.88A4.13,4.13,0,0,0,54,45.64V30.37A4.13,4.13,0,0,0,49.88,26.24ZM25.1,27.91a2.63,2.63,0,0,1,1-.21H49.88a2.63,2.63,0,0,1,1,.21l.22.09L40,38.54a2.9,2.9,0,0,1-3.94,0L24.88,28ZM52.55,45.8h0a2.67,2.67,0,0,1-2.66,2.5H26.12a2.67,2.67,0,0,1-2.66-2.66V30.37a2.63,2.63,0,0,1,.27-1.17l.09-.19L35,39.59a4.37,4.37,0,0,0,5.93,0L52.18,29l.09.19a2.63,2.63,0,0,1,.27,1.17Z"/></svg>