<svg id="Camada_1" data-name="Camada 1" xmlns="http://www.w3.org/2000/svg" viewBox="0 0 48 48"><defs><style>.cls-1{fill:#f4ab34;}</style></defs><title>Painel de Indicadores - Amarelo</title><path class="cls-1" d="M43.68,10.35a1.09,1.09,0,0,0-.8-.2v0a1.07,1.07,0,0,0-.71.43L37.5,17l-.44-.29A24,24,0,0,0,0,36.57v.29a1.09,1.09,0,0,0,2.17,0v-.07A21.82,21.82,0,0,1,35.69,18.36l.5.32L23.35,36.08a1.09,1.09,0,0,0,1.75,1.29l18.83-25.5A1.09,1.09,0,0,0,43.68,10.35Z"/><path class="cls-1" d="M45.18,25.53a1,1,0,0,0-.63-.53,1.1,1.1,0,0,0-1.23,1.63,21.89,21.89,0,0,1,2.51,10.14v.07a1.09,1.09,0,0,0,2.17,0v-.07A24,24,0,0,0,45.18,25.53Z"/></svg>