<?xml version="1.0" encoding="UTF-8"?>
<svg id="Camada_1" data-name="Camada 1" xmlns="http://www.w3.org/2000/svg" viewBox="0 0 76 76">
  <defs>
    <style>.cls-2{fill:#f4ab34;}</style>
  </defs>
  <title>Mensagem - Amarelo</title>
  <path class="cls-2" d="M38,22.27c-8.83,0-16,6.22-16,13.89a12.6,12.6,0,0,0,3,8.09,9.93,9.93,0,0,0,.74.84,1.91,1.91,0,0,1,.57,1.38l-1,5.63a1.32,1.32,0,0,0,.48,1.46,1.09,1.09,0,0,0,.6.18,1.68,1.68,0,0,0,.93-.33l5.36-3.62a2.06,2.06,0,0,1,1-.27h.25A22.77,22.77,0,0,0,38,50c8.83,0,16-6.23,16-13.89S46.84,22.27,38,22.27Zm0,26.33a21.47,21.47,0,0,1-3.78-.47,2.69,2.69,0,0,0-.57-.06,3.45,3.45,0,0,0-1.83.5L26.78,52l1-5.27a3.21,3.21,0,0,0-1-2.69,9.18,9.18,0,0,1-.62-.73,11.16,11.16,0,0,1-2.66-7.17C23.46,29.3,30,23.72,38,23.72S52.57,29.3,52.57,36.16,46,48.59,38,48.59Z"/>
</svg>
