<svg id="Camada_1" data-name="Camada 1" xmlns="http://www.w3.org/2000/svg" viewBox="0 0 24 24"><defs><style>.cls-1{fill:#f4ab34;}</style></defs><title>Telefone - Amarelo</title><path class="cls-1" d="M23.86,18.42h0a6.69,6.69,0,0,0-1.71-2.6L22,15.64A5.33,5.33,0,0,0,19.06,14a5.71,5.71,0,0,0-1.82.36,3.16,3.16,0,0,1-2,.15,8.62,8.62,0,0,1-3.32-2.38A8.63,8.63,0,0,1,9.53,8.77a3.19,3.19,0,0,1,.15-2A5.72,5.72,0,0,0,10,4.92,5,5,0,0,0,8.35,2L8.2,1.88A6.73,6.73,0,0,0,5.57.16C4.18-.25,2.74.24,1.38,1.59A4.74,4.74,0,0,0,0,4.93c0,1.39.83,3.32,2.39,5.59a44.75,44.75,0,0,0,5.1,6,44.2,44.2,0,0,0,6,5.08c2.26,1.54,4.18,2.36,5.6,2.36a4.73,4.73,0,0,0,3.33-1.38C23.79,21.24,24.27,19.83,23.86,18.42ZM8.16,6.22c-.61,1.88-.81,3.59,2.59,7,2,2,3.64,3,5.18,3a5.9,5.9,0,0,0,1.8-.34A4.41,4.41,0,0,1,19,15.59h0a4.76,4.76,0,0,1,1.79,1.23l.11.11A4.65,4.65,0,0,1,22.32,19a2.83,2.83,0,0,1-1.06,2.43,3.13,3.13,0,0,1-2.2.9c-1.27,0-3.11-1.06-4.43-1.95a41.64,41.64,0,0,1-6-5,42.28,42.28,0,0,1-5.06-6C2.85,8.3,1.63,6.29,1.63,4.93a3.08,3.08,0,0,1,.9-2.2A3.08,3.08,0,0,1,4.62,1.61a1.82,1.82,0,0,1,.36,0A4.78,4.78,0,0,1,7.08,3a5.19,5.19,0,0,1,1.36,1.9A4.38,4.38,0,0,1,8.16,6.22Z"/></svg>